# xmcd
#
# Track frame offsets: 
#        180
#        11758
#        25964
#        36098
#        51016
#        69260
#        77732
#        89260
#        99101
#        108107
#        123438
#        127892
#        139301
#        151297
#        162939
#        174919
#        186614
#        198350
#        210286
#        221395
#        230838
#        239365
#        253455
#        265123
#        275666
#        287624
#        303768
#
# Disc length: 4272 seconds
#
# Revision: 1
# Processed by: cddbd v1.5.2PL0 Copyright (c) Steve Scherf et al.
# Submitted via: ExactAudioCopy v0.99pb3
#
DISCID=7510ae1b
DTITLE=Hazlewood, Lee - Love And Other Crimes
DYEAR=1997
DGENRE=Rock
TTITLE0=For One Moment
TTITLE1=Bugles In The Afternoon
TTITLE2=After Six
TTITLE3=The Nights
TTITLE4=Your Sweet Love
TTITLE5=We All Make The Flowers Grow
TTITLE6=Look At That Woman
TTITLE7=She Comes Running
TTITLE8=Forget Marie
TTITLE9=Pour Man'
TTITLE10=Love And Other Crimes
TTITLE11=Them Girls
TTITLE12=Friday's Child
TTITLE13=Hutchinson Jail
TTITLE14=By The Way
TTITLE15=Four Kinds Of Lonely
TTITLE16=Houston
TTITLE17=Since You're Gone
TTITLE18=A Real Live Fool
TTITLE19=I'm Blue
TTITLE20=The Fool
TTITLE21=That Old Freight Train
TTITLE22=Me And Charlie
TTITLE23=I'm Gonna Fly
TTITLE24=The Bed
TTITLE25=Bye Baby
TTITLE26=No Regrets
EXTD=
EXTT0=
EXTT1=
EXTT2=
EXTT3=
EXTT4=
EXTT5=
EXTT6=
EXTT7=
EXTT8=
EXTT9=
EXTT10=
EXTT11=
EXTT12=
EXTT13=
EXTT14=
EXTT15=
EXTT16=
EXTT17=
EXTT18=
EXTT19=
EXTT20=
EXTT21=
EXTT22=
EXTT23=
EXTT24=
EXTT25=
EXTT26=
PLAYORDER=
